<svg width="76" height="22" viewBox="0 0 76 22" fill="none" xmlns="http://www.w3.org/2000/svg">
<path d="M4.5 15C4.91667 15 5.27083 14.8542 5.5625 14.5625C5.85417 14.2708 6 13.9167 6 13.5C6 13.0833 5.85417 12.7292 5.5625 12.4375C5.27083 12.1458 4.91667 12 4.5 12C4.08333 12 3.72917 12.1458 3.4375 12.4375C3.14583 12.7292 3 13.0833 3 13.5C3 13.9167 3.14583 14.2708 3.4375 14.5625C3.72917 14.8542 4.08333 15 4.5 15ZM13.5 15C13.8333 15 14.1333 14.9 14.4 14.7C14.6667 14.5 14.8417 14.2417 14.925 13.925C14.5917 13.8583 14.275 13.7458 13.975 13.5875C13.675 13.4292 13.4 13.225 13.15 12.975L12.525 12.35C12.3583 12.4833 12.2292 12.65 12.1375 12.85C12.0458 13.05 12 13.2667 12 13.5C12 13.9167 12.1458 14.2708 12.4375 14.5625C12.7292 14.8542 13.0833 15 13.5 15ZM3 18V19C3 19.2833 2.90417 19.5208 2.7125 19.7125C2.52083 19.9042 2.28333 20 2 20H1C0.716667 20 0.479167 19.9042 0.2875 19.7125C0.0958333 19.5208 0 19.2833 0 19V11L2.1 5C2.2 4.7 2.37917 4.45833 2.6375 4.275C2.89583 4.09167 3.18333 4 3.5 4H7V5.375C7 5.475 7.00417 5.57917 7.0125 5.6875C7.02083 5.79583 7.03333 5.9 7.05 6H3.85L2.8 9H9.175L11.175 11H2V16H16V13.975C16.3667 13.9417 16.7208 13.85 17.0625 13.7C17.4042 13.55 17.7167 13.3417 18 13.075V19C18 19.2833 17.9042 19.5208 17.7125 19.7125C17.5208 19.9042 17.2833 20 17 20H16C15.7167 20 15.4792 19.9042 15.2875 19.7125C15.0958 19.5208 15 19.2833 15 19V18H3ZM13 5C13.2833 5 13.5208 4.90417 13.7125 4.7125C13.9042 4.52083 14 4.28333 14 4C14 3.71667 13.9042 3.47917 13.7125 3.2875C13.5208 3.09583 13.2833 3 13 3C12.7167 3 12.4792 3.09583 12.2875 3.2875C12.0958 3.47917 12 3.71667 12 4C12 4.28333 12.0958 4.52083 12.2875 4.7125C12.4792 4.90417 12.7167 5 13 5ZM14.55 11.55L9.45 6.45C9.31667 6.31667 9.20833 6.15417 9.125 5.9625C9.04167 5.77083 9 5.575 9 5.375V1.5C9 1.08333 9.14583 0.729167 9.4375 0.4375C9.72917 0.145833 10.0833 0 10.5 0H14.375C14.575 0 14.7708 0.0416667 14.9625 0.125C15.1542 0.208333 15.3167 0.316667 15.45 0.45L20.55 5.55C20.8333 5.83333 20.975 6.1875 20.975 6.6125C20.975 7.0375 20.8333 7.39167 20.55 7.675L16.675 11.55C16.3917 11.8333 16.0375 11.975 15.6125 11.975C15.1875 11.975 14.8333 11.8333 14.55 11.55ZM15.625 9.8L18.8 6.625L14.175 2H11V5.175L15.625 9.8Z" fill="#F15721"/>
<path d="M30.824 17H28.44V5.576H34.984V7.56H30.824V10.504H34.696V12.488H30.824V17ZM39.4133 8.264V17H37.0293V8.264H39.4133ZM38.2293 4.84C38.5813 4.84 38.8853 4.92533 39.1413 5.096C39.3973 5.256 39.5253 5.56 39.5253 6.008C39.5253 6.44533 39.3973 6.74933 39.1413 6.92C38.8853 7.09067 38.5813 7.176 38.2293 7.176C37.8666 7.176 37.5573 7.09067 37.3013 6.92C37.0559 6.74933 36.9333 6.44533 36.9333 6.008C36.9333 5.56 37.0559 5.256 37.3013 5.096C37.5573 4.92533 37.8666 4.84 38.2293 4.84ZM46.7683 8.104C47.7496 8.104 48.5443 8.488 49.1523 9.256C49.7603 10.0133 50.0642 11.1333 50.0642 12.616C50.0642 13.608 49.9203 14.4453 49.6323 15.128C49.3443 15.8 48.9496 16.3067 48.4483 16.648C47.9469 16.9893 47.3656 17.16 46.7043 17.16C46.2883 17.16 45.9256 17.1067 45.6163 17C45.3176 16.8933 45.0616 16.7547 44.8483 16.584C44.6349 16.4133 44.4483 16.232 44.2883 16.04H44.1603C44.2029 16.2427 44.2349 16.456 44.2563 16.68C44.2776 16.8933 44.2883 17.1067 44.2883 17.32V20.84H41.9043V8.264H43.8403L44.1763 9.4H44.2883C44.4483 9.16533 44.6403 8.952 44.8643 8.76C45.0883 8.55733 45.3549 8.39733 45.6643 8.28C45.9843 8.16267 46.3523 8.104 46.7683 8.104ZM46.0003 10.008C45.5843 10.008 45.2536 10.0933 45.0083 10.264C44.7629 10.4347 44.5816 10.696 44.4643 11.048C44.3576 11.3893 44.2989 11.8213 44.2883 12.344V12.6C44.2883 13.1653 44.3416 13.6453 44.4483 14.04C44.5549 14.424 44.7363 14.7173 44.9923 14.92C45.2483 15.1227 45.5949 15.224 46.0323 15.224C46.3949 15.224 46.6936 15.1227 46.9283 14.92C47.1629 14.7173 47.3389 14.4187 47.4563 14.024C47.5736 13.6293 47.6323 13.1493 47.6323 12.584C47.6323 11.7307 47.4989 11.0907 47.2323 10.664C46.9763 10.2267 46.5656 10.008 46.0003 10.008ZM55.6293 8.104C56.4399 8.104 57.1333 8.25867 57.7093 8.568C58.2959 8.87733 58.7493 9.32533 59.0693 9.912C59.3893 10.4987 59.5493 11.2187 59.5493 12.072V13.224H53.9173C53.9386 13.896 54.1359 14.424 54.5093 14.808C54.8933 15.192 55.4213 15.384 56.0933 15.384C56.6586 15.384 57.1706 15.3307 57.6293 15.224C58.0879 15.1067 58.5626 14.9307 59.0533 14.696V16.536C58.6266 16.7493 58.1733 16.904 57.6933 17C57.2239 17.1067 56.6533 17.16 55.9813 17.16C55.1066 17.16 54.3333 17 53.6613 16.68C52.9893 16.3493 52.4613 15.8533 52.0773 15.192C51.6933 14.5307 51.5013 13.6987 51.5013 12.696C51.5013 11.672 51.6719 10.824 52.0133 10.152C52.3653 9.46933 52.8506 8.95733 53.4693 8.616C54.0879 8.27467 54.8079 8.104 55.6293 8.104ZM55.6453 9.8C55.1866 9.8 54.8026 9.94933 54.4933 10.248C54.1946 10.5467 54.0186 11.0107 53.9653 11.64H57.3093C57.3093 11.288 57.2453 10.9733 57.1173 10.696C56.9999 10.4187 56.8186 10.2 56.5733 10.04C56.3279 9.88 56.0186 9.8 55.6453 9.8Z" fill="white"/>
<path d="M75.0626 17H72.2946L69.6386 12.68L66.9826 17H64.3906L68.1826 11.112L64.6306 5.576H67.3026L69.7666 9.688L72.1826 5.576H74.7906L71.2066 11.24L75.0626 17Z" fill="#F15721"/>
</svg>
